<svg xmlns="http://www.w3.org/2000/svg" width="256" height="256" viewBox="0 0 256 256" role="img" aria-label="Weather sun and cloud logo">
  <defs>
    <linearGradient id="bg" x1="24" y1="20" x2="232" y2="236" gradientUnits="userSpaceOnUse">
      <stop offset="0" stop-color="#f89a52" />
      <stop offset="1" stop-color="#f77625" />
    </linearGradient>
  </defs>

  <rect x="12" y="12" width="232" height="232" rx="56" fill="url(#bg)" />

  <circle cx="176" cy="86" r="30" fill="#ffd9b6" />
  <g stroke="#ffd9b6" stroke-linecap="round" stroke-width="8" opacity="0.95">
    <line x1="176" y1="36" x2="176" y2="22" />
    <line x1="176" y1="150" x2="176" y2="136" />
    <line x1="126" y1="86" x2="112" y2="86" />
    <line x1="240" y1="86" x2="226" y2="86" />
    <line x1="141" y1="51" x2="131" y2="41" />
    <line x1="221" y1="131" x2="211" y2="121" />
    <line x1="141" y1="121" x2="131" y2="131" />
    <line x1="221" y1="41" x2="211" y2="51" />
  </g>

  <g>
    <ellipse cx="130" cy="168" rx="70" ry="36" fill="#fffaf4" />
    <circle cx="90" cy="160" r="28" fill="#fffaf4" />
    <circle cx="128" cy="146" r="34" fill="#fffaf4" />
    <circle cx="168" cy="160" r="26" fill="#fffaf4" />
    <path
      d="M58 170C58 143 80 122 107 122H153C180 122 202 143 202 170V174H58V170Z"
      fill="#fffaf4"
    />
    <path
      d="M58 174H202"
      stroke="#d9c8b9"
      stroke-width="8"
      stroke-linecap="round"
    />
  </g>
</svg>
